<svg width="97" height="24" viewBox="0 0 97 24" fill="none" xmlns="http://www.w3.org/2000/svg">
<path d="M36.5088 1.6H40.1405V21.4499H34.2823V18.1577H36.5088V1.6ZM30.2795 3.69635H33.8617L31.7688 21.4499H28.2063L30.2795 3.69635ZM42.4314 3.69635H45.8405L47.9087 21.4499H44.5046L42.4314 3.69635ZM70.1988 18.2691V21.5613H59.5361V18.2691H60.1151V1.92922H69.5556V18.2691H70.1988ZM58.9078 1.66778V4.95996L56.2607 5.04711V7.37584H59.1799V10.7116H56.2607V21.5371H52.6289V10.7116H49.7394V7.37584H52.6289V5.17783L50.0066 5.26497V1.95343L58.9078 1.66778ZM52.2974 11.6024L51.8967 21.5371H49.7394L50.1352 11.6024H52.2974ZM58.6851 11.6024L59.0859 21.5371H56.9286L56.5279 11.6024H58.6851ZM63.7418 16.1146V18.2691H65.9684V16.1146H63.7418ZM63.7418 10.6874V12.8225H65.9684V10.6874H63.7418ZM63.7418 5.26497V7.37584H65.9684V5.26497H63.7418ZM71.6881 4.43224L73.6524 2.51503H81.7323L83.6916 4.43224V19.6876L81.7323 21.6H73.6524L71.6881 19.6876V4.43224ZM80.0203 5.87499H75.3644V18.2449H80.0203V5.87499ZM93.1074 2.51503L97.0063 21.6H93.335L92.6423 18.2255H88.1645L87.452 21.6H83.7807L87.6994 2.51503H93.1074ZM90.391 7.26933L88.8572 14.8704H91.9496L90.391 7.26933Z" fill="white"/>
<path fill-rule="evenodd" clip-rule="evenodd" d="M20.7901 3.9846L18.6363 11.9538H12.7482L5.7832 0L20.7901 3.9846Z" fill="white"/>
<path fill-rule="evenodd" clip-rule="evenodd" d="M14.1933 23.9999L8.30518 18.1651L11.2492 13.1133H25.1792L14.1933 23.9999Z" fill="white"/>
<path fill-rule="evenodd" clip-rule="evenodd" d="M0 8.32953L8.04193 6.19517L10.986 11.247L4.02096 23.2008L0 8.32953Z" fill="white"/>
</svg>
