<svg width="185" height="57" viewBox="0 0 185 57" fill="none" xmlns="http://www.w3.org/2000/svg">
<path d="M114.52 50.5265C114.52 50.7786 114.483 51.0452 114.408 51.3253C114.343 51.6056 114.203 51.8912 113.988 52.1808C113.773 52.4704 113.455 52.7603 113.035 53.0499C112.614 53.3302 112.054 53.5965 111.353 53.8488C110.653 54.1104 109.779 54.353 108.732 54.5773C108.695 54.4932 108.639 54.3997 108.564 54.297C108.489 54.1943 108.406 54.0911 108.312 53.9884C108.228 53.8856 108.143 53.8019 108.059 53.7365C109.068 53.5589 109.9 53.3625 110.554 53.1476C111.218 52.9328 111.741 52.7135 112.124 52.4894C112.507 52.2558 112.791 52.0261 112.978 51.8019C113.165 51.5683 113.287 51.3396 113.344 51.1154C113.4 50.8912 113.427 50.6806 113.427 50.4845V49.6017H114.52V50.5265ZM114.871 51.7745C115.273 51.896 115.698 52.041 116.146 52.2091C116.594 52.3679 117.043 52.5356 117.491 52.713C117.939 52.8905 118.36 53.0687 118.753 53.2462C119.145 53.4236 119.481 53.5914 119.761 53.7501L119.159 54.5773C118.897 54.4278 118.575 54.2592 118.192 54.0724C117.809 53.8949 117.393 53.7133 116.945 53.5265C116.506 53.3396 116.057 53.1615 115.599 52.9933C115.151 52.8158 114.721 52.6568 114.31 52.5167L114.871 51.7745ZM141.386 43.3234H135.921V44.5148H140.517V49.9386H135.768C135.679 50.393 135.524 50.8324 135.303 51.256C135.106 51.6356 134.834 51.9955 134.488 52.338C134.836 52.4943 135.206 52.6298 135.598 52.7413C136.43 52.9749 137.364 53.1435 138.401 53.2462C139.438 53.3396 140.592 53.4042 141.863 53.4415C141.77 53.5629 141.676 53.7221 141.583 53.9181C141.499 54.1142 141.442 54.3012 141.414 54.4786C140.115 54.4226 138.929 54.3248 137.854 54.1847C136.78 54.0539 135.808 53.8434 134.939 53.5538C134.482 53.4063 134.052 53.2273 133.649 53.0177C133.287 53.2548 132.867 53.4756 132.388 53.6798C131.632 54.0068 130.693 54.2924 129.572 54.5353C129.535 54.4512 129.479 54.3525 129.404 54.2404C129.329 54.1284 129.25 54.012 129.166 53.8907C129.091 53.7787 129.016 53.6852 128.941 53.6105C130.034 53.4049 130.941 53.1613 131.66 52.881C132.039 52.7332 132.376 52.5753 132.673 52.4093C132.658 52.3982 132.642 52.3882 132.627 52.3771C131.954 51.8726 131.385 51.2229 130.918 50.4288L131.814 50.0646C132.263 50.7558 132.8 51.3165 133.426 51.7462C133.458 51.7682 133.492 51.7882 133.524 51.8097C133.876 51.4946 134.143 51.1652 134.323 50.8214C134.469 50.5368 134.577 50.242 134.652 49.9386H130.469V44.5148H134.828V43.3234H129.193V42.3702H141.386V43.3234ZM160.951 54.4933H159.885V54.0021H153.354V54.5206H152.317V48.7335H160.951V54.4933ZM177.292 53.3019C177.292 53.5728 177.259 53.7833 177.193 53.9327C177.128 54.0914 176.997 54.2173 176.801 54.3107C176.604 54.3853 176.352 54.4326 176.044 54.4513C175.735 54.47 175.361 54.4786 174.923 54.4786C174.895 54.3386 174.848 54.1751 174.783 53.9884C174.718 53.8016 174.648 53.6426 174.573 53.5118C174.9 53.5212 175.199 53.5265 175.469 53.5265C175.74 53.5358 175.927 53.5358 176.03 53.5265C176.123 53.5265 176.185 53.5072 176.213 53.4698C176.24 53.4418 176.255 53.3812 176.255 53.2882V51.6486H173.269V54.507H172.288V46.6173H177.292V53.3019ZM91.5369 42.6652C91.1071 42.8333 90.6208 42.9869 90.0789 43.1271C89.9174 43.1688 89.7534 43.206 89.5886 43.2452V45.5802H91.5369V46.5607H89.5886V46.8175C89.6735 46.9143 89.7996 47.0668 89.9666 47.2755C90.1628 47.5091 90.3689 47.7614 90.5837 48.0323C90.7986 48.3033 90.9951 48.5556 91.1726 48.7892C91.35 49.0226 91.4758 49.1913 91.5505 49.2941L90.906 50.1202C90.8219 49.9521 90.7005 49.7328 90.5417 49.462C90.3829 49.1911 90.2047 48.9109 90.0085 48.6212C89.863 48.3883 89.7228 48.1726 89.5886 47.9738V54.4933H88.5798V48.3068C88.442 48.656 88.2994 49.0046 88.1453 49.3497C87.9117 49.8636 87.6637 50.3446 87.4021 50.7931C87.1406 51.2415 86.8838 51.6292 86.6316 51.9562C86.5662 51.8161 86.4771 51.6527 86.365 51.4659C86.2622 51.2791 86.1645 51.1202 86.071 50.9894C86.4074 50.6157 86.7392 50.1485 87.0662 49.588C87.4025 49.0181 87.7064 48.4157 87.9773 47.7804C88.1548 47.3581 88.3078 46.9509 88.4412 46.5607H86.2673V45.5802H88.5798V43.4669C88.519 43.4791 88.4585 43.4941 88.3972 43.506C87.818 43.6087 87.2574 43.6969 86.7156 43.7716C86.6969 43.6595 86.6549 43.524 86.5896 43.3654C86.5336 43.2066 86.4776 43.0712 86.4216 42.9591C86.9447 42.8657 87.4819 42.7626 88.033 42.6505C88.5935 42.5384 89.1218 42.4127 89.6169 42.2726C90.1213 42.1231 90.5467 41.9738 90.8923 41.8243L91.5369 42.6652ZM179.646 50.4161C179.914 50.3286 180.185 50.2361 180.459 50.1349C180.973 49.948 181.459 49.7516 181.917 49.546C182.374 49.3405 182.762 49.1343 183.08 48.9288L183.766 49.714C183.383 49.9382 182.939 50.153 182.434 50.3585C181.93 50.5547 181.407 50.7416 180.865 50.9191C180.448 51.0485 180.041 51.1685 179.646 51.2814V52.9093C179.646 53.1333 179.693 53.2827 179.786 53.3575C179.889 53.4229 180.109 53.4562 180.445 53.4562H182.758C182.954 53.4561 183.103 53.4142 183.206 53.3302C183.309 53.2462 183.378 53.0731 183.416 52.8116C183.453 52.5407 183.481 52.1381 183.5 51.6056C183.631 51.6897 183.785 51.7691 183.963 51.8439C184.149 51.9186 184.313 51.9754 184.453 52.0128C184.416 52.6385 184.346 53.1242 184.243 53.4698C184.14 53.8155 183.976 54.0539 183.752 54.1847C183.537 54.3247 183.234 54.3946 182.842 54.3947H180.346C179.898 54.3946 179.544 54.3527 179.282 54.2687C179.03 54.1846 178.852 54.0353 178.749 53.8204C178.655 53.6055 178.609 53.3017 178.609 52.9093V48.173H179.646V50.4161ZM68.2166 51.9532L69.8982 50.7228C69.9356 50.8629 69.9871 51.0175 70.0525 51.1857C70.1179 51.3537 70.1738 51.4892 70.2205 51.5919C69.5664 52.0964 69.0382 52.5033 68.6365 52.8116C68.2349 53.1198 67.9265 53.3627 67.7117 53.5402C67.4968 53.7176 67.3379 53.853 67.2351 53.9464C67.1886 53.993 67.148 54.0373 67.113 54.0792L67.0251 54.1984L66.948 54.09C66.9153 54.0503 66.8755 54.0068 66.8289 53.9601C66.7448 53.8761 66.6556 53.7921 66.5623 53.7081C66.4784 53.6336 66.4039 53.5775 66.3386 53.5402C66.4414 53.4561 66.5628 53.3347 66.7029 53.1759C66.843 53.0171 66.9644 52.8346 67.0671 52.629C67.1698 52.4143 67.2214 52.1809 67.2214 51.9288V47.0509H65.0212V46.0421H68.2166V51.9532ZM73.696 46.2521H76.7791V47.2618H73.696V53.0499H77.8025V54.087H69.239V53.0499H72.6169V41.7394H73.696V46.2521ZM97.8152 53.0773H99.1179V54.0587H90.9343V53.0773H92.3494V42.4122H97.8152V53.0773ZM153.354 53.1339H159.885V51.7462H153.354V53.1339ZM93.3865 53.0773H96.7361V50.3732H93.3865V53.0773ZM118.501 52.1105H117.407V49.1398H110.68V52.1671H109.63V48.2286H118.501V52.1105ZM153.354 50.9191H159.885V49.6017H153.354V50.9191ZM173.269 50.8214H176.255V49.546H173.269V50.8214ZM93.3865 49.4054H96.7361V46.8126H93.3865V49.4054ZM131.478 49.0695H134.787C134.813 48.7854 134.828 48.4956 134.828 48.2003V47.6398H131.478V49.0695ZM135.921 48.215C135.921 48.5038 135.908 48.7886 135.885 49.0695H139.467V47.6398H135.921V48.215ZM152.822 41.7814C152.715 42.1243 152.585 42.4605 152.438 42.7911H156.269V43.6456H154.195V44.4728C154.195 44.6346 154.187 44.8029 154.17 44.9777H156.635V45.8458H154.016C153.995 45.9217 153.967 45.9968 153.94 46.0734C154.067 46.1469 154.236 46.2488 154.448 46.379C154.7 46.5191 154.961 46.6729 155.232 46.8409C155.512 47.0091 155.77 47.168 156.004 47.3175C156.246 47.4576 156.419 47.565 156.522 47.6398L155.793 48.3546C155.662 48.2519 155.48 48.1163 155.247 47.9484C155.023 47.7803 154.78 47.6029 154.518 47.4161C154.266 47.2293 154.018 47.0564 153.775 46.8976C153.718 46.8587 153.662 46.8231 153.61 46.7882C153.386 47.1931 153.054 47.5899 152.612 47.9767C152.164 48.3597 151.57 48.7195 150.832 49.0558C150.757 48.9437 150.655 48.817 150.524 48.6769C150.393 48.5274 150.267 48.4104 150.145 48.3263C150.855 48.0461 151.416 47.743 151.827 47.4161C152.238 47.0798 152.542 46.7384 152.738 46.3927C152.843 46.2078 152.927 46.0253 152.992 45.8458H150.286V44.9777H153.171C153.19 44.7983 153.201 44.6301 153.201 44.4728V43.6456H152.007C151.728 44.1417 151.437 44.5679 151.127 44.921C151.061 44.865 150.977 44.8048 150.874 44.7394C150.771 44.674 150.664 44.6085 150.552 44.5431C150.449 44.4778 150.361 44.4305 150.286 44.4025C150.641 44.0382 150.954 43.6084 151.224 43.1134C151.495 42.6183 151.706 42.1091 151.855 41.5861L152.822 41.7814ZM173.269 48.7189H176.255V47.5138H173.269V48.7189ZM179.66 43.9991C179.899 43.9187 180.142 43.8343 180.388 43.7443C180.874 43.5667 181.337 43.3886 181.776 43.2111C182.215 43.0243 182.593 42.8469 182.911 42.6788L183.612 43.464C183.21 43.6414 182.767 43.8231 182.281 44.0099C181.795 44.1874 181.295 44.3559 180.781 44.5148C180.4 44.6326 180.026 44.7422 179.66 44.8497V46.2941C179.66 46.5181 179.702 46.6631 179.786 46.7286C179.879 46.794 180.09 46.8273 180.417 46.8273H182.631C182.817 46.8273 182.958 46.7897 183.052 46.715C183.145 46.6309 183.21 46.4763 183.248 46.2521C183.285 46.0185 183.313 45.6682 183.332 45.2013C183.416 45.2573 183.509 45.3132 183.612 45.3693C183.724 45.4253 183.841 45.4768 183.963 45.5236C184.084 45.5609 184.192 45.5889 184.285 45.6075C184.248 46.1775 184.178 46.6219 184.075 46.9396C183.972 47.257 183.813 47.4763 183.598 47.5978C183.393 47.7192 183.103 47.7804 182.729 47.7804H180.319C179.871 47.7804 179.52 47.7385 179.267 47.6544C179.024 47.5703 178.852 47.4201 178.749 47.2052C178.655 46.9904 178.609 46.6915 178.609 46.3087V41.6554H179.66V43.9991ZM162.141 47.6544H157.222V42.7628H162.141V47.6544ZM112.04 41.9777C111.713 42.3981 111.329 42.8093 110.89 43.2111C110.849 43.2489 110.806 43.285 110.764 43.3224V47.5978H109.741V44.1642C109.666 44.2203 109.593 44.2774 109.517 44.3322C109.05 44.6778 108.587 44.9817 108.13 45.2433C108.074 45.1779 107.994 45.0984 107.891 45.005C107.798 44.9024 107.7 44.8044 107.597 44.7111C107.504 44.6176 107.415 44.5425 107.331 44.4865C107.798 44.2622 108.261 44.0012 108.719 43.7023C109.186 43.394 109.625 43.0665 110.036 42.7208C110.447 42.3659 110.797 42.0016 111.087 41.6281L112.04 41.9777ZM119.285 42.4406C118.697 42.562 118.019 42.6694 117.254 42.7628C116.927 42.7986 116.595 42.8295 116.259 42.8585V44.2208H120.211V45.0333H116.259V46.547H119.58V47.3595H112.137V46.547H115.235V45.0333H111.55V44.2208H115.235V42.9357C115.114 42.9434 114.993 42.9522 114.871 42.9591C114.049 43.0058 113.259 43.0381 112.503 43.0568C112.484 42.9634 112.451 42.847 112.404 42.7072C112.357 42.5579 112.311 42.4363 112.264 42.3429C112.825 42.3242 113.4 42.2953 113.988 42.2579C114.586 42.2206 115.17 42.1787 115.74 42.132C116.319 42.0759 116.856 42.0157 117.351 41.9503C117.856 41.8849 118.291 41.8141 118.655 41.7394L119.285 42.4406ZM131.478 46.799H134.828V45.3976H131.478V46.799ZM135.921 46.799H139.467V45.3976H135.921V46.799ZM158.204 46.7013H161.119V43.7159H158.204V46.7013ZM174.881 41.88C174.712 42.263 174.531 42.6648 174.335 43.0851C174.148 43.4962 173.951 43.8891 173.746 44.2628C173.699 44.3521 173.65 44.4376 173.603 44.5226C174.099 44.5014 174.618 44.4803 175.161 44.4591C175.604 44.4361 176.049 44.4171 176.496 44.3976C176.423 44.2739 176.347 44.1492 176.268 44.0245C176.035 43.6415 175.796 43.2817 175.553 42.9454L176.423 42.6085C176.675 42.9262 176.918 43.2772 177.151 43.6603C177.394 44.0339 177.614 44.4024 177.81 44.7667C178.007 45.1311 178.156 45.4585 178.259 45.7482L177.347 46.1544C177.266 45.9027 177.145 45.62 176.986 45.3048C176.404 45.3428 175.819 45.3799 175.231 45.4113C174.54 45.4486 173.876 45.4862 173.241 45.5236C172.615 45.5609 172.045 45.5942 171.531 45.6222L171.447 44.5988C171.771 44.5863 172.129 44.5751 172.519 44.5626C172.619 44.3764 172.721 44.1783 172.821 43.9679C173.017 43.5664 173.199 43.16 173.367 42.7491C173.544 42.3287 173.689 41.9498 173.802 41.6134L174.881 41.88ZM93.3865 45.8458H96.7361V43.3937H93.3865V45.8458ZM66.9265 41.8663C67.16 42.0718 67.4125 42.305 67.6833 42.5665C67.9543 42.8281 68.2163 43.0805 68.4685 43.3234C68.7208 43.5569 68.9269 43.763 69.0857 43.9406L68.3982 44.7247C68.2487 44.5379 68.0478 44.3187 67.7957 44.0665C67.5527 43.8143 67.2961 43.5523 67.0251 43.2814C66.7635 43.0104 66.5156 42.7624 66.282 42.5382L66.9265 41.8663ZM161.64 6.30872V33.0333L158.277 36.3829H144.404L141.032 33.0333V6.30872L144.404 2.95032H158.277L161.64 6.30872ZM184.501 36.3829H178.198L177.009 30.4718H169.32L168.097 36.3829H161.794L168.522 2.95032H177.806L184.501 36.3829ZM137.371 30.548H138.475V36.3156H120.169V30.548H121.162V1.92395H137.371V30.548ZM107.052 36.2726H103.348L104.028 18.8693H107.74L107.052 36.2726ZM119.09 7.23254L114.545 7.38586V11.465H119.556V17.3087H114.545V36.2726H108.309V17.3087H103.348V11.465H108.309V7.61438L103.807 7.7677V1.96594L119.09 1.46594V7.23254ZM119.395 36.2726H115.691L115.004 18.8693H118.707L119.395 36.2726ZM72.4949 36.1202H66.3787L69.9373 5.01965H76.0876L72.4949 36.1202ZM86.8679 36.1202H76.8103V30.3527H80.6326V1.3468H86.8679V36.1202ZM100.205 36.1202H94.3611L90.8015 5.01965H96.6541L100.205 36.1202ZM127.389 30.548H131.212V26.7736H127.389V30.548ZM147.344 30.506H155.338V8.83606H147.344V30.506ZM170.51 24.5939H175.819L173.143 11.2784L170.51 24.5939ZM127.389 21.007H131.212V17.2667H127.389V21.007ZM127.389 11.465H131.212V7.7677H127.389V11.465Z" fill="#242425"/>
<path fill-rule="evenodd" clip-rule="evenodd" d="M48.926 9.3908L43.8573 28.1723H30.0006L13.6096 6.10352e-05L48.926 9.3908Z" fill="#94BEFD"/>
<path fill-rule="evenodd" clip-rule="evenodd" d="M33.4017 56.562L19.545 42.8107L26.4734 30.9049H59.2554L33.4017 56.562Z" fill="#3B82F6"/>
<path fill-rule="evenodd" clip-rule="evenodd" d="M0 19.6308L18.9254 14.6006L25.8537 26.5064L9.46269 54.6786L0 19.6308Z" fill="#66A2FC"/>
</svg>
