<svg width="131" height="34" viewBox="0 0 131 34" fill="none" xmlns="http://www.w3.org/2000/svg">
<path d="M54.4988 4H59.0913V29.8049H51.6833V25.5251H54.4988V4ZM46.6216 6.72525H51.1515L48.5049 29.8049H44L46.6216 6.72525ZM61.9881 6.72525H66.299L68.9143 29.8049H64.6097L61.9881 6.72525ZM97.101 25.6698V29.9497H83.6177V25.6698H84.3497V4.42798H96.2876V25.6698H97.101ZM82.8231 4.08811V8.36795L79.4757 8.48124V11.5086H83.1672V15.8451H79.4757V29.9182H74.8833V15.8451H71.2293V11.5086H74.8833V8.65117L71.5672 8.76446V4.45945L82.8231 4.08811ZM74.4641 17.0031L73.9573 29.9182H71.2293L71.7299 17.0031H74.4641ZM82.5415 17.0031L83.0483 29.9182H80.3204L79.8136 17.0031H82.5415ZM88.9359 22.869V25.6698H91.7515V22.869H88.9359ZM88.9359 15.8136V18.5892H91.7515V15.8136H88.9359ZM88.9359 8.76446V11.5086H91.7515V8.76446H88.9359ZM98.9843 7.68192L101.468 5.18954H111.685L114.163 7.68192V27.5139L111.685 30H101.468L98.9843 27.5139V7.68192ZM109.521 9.55749H103.633V25.6383H109.521V9.55749ZM126.07 5.18954L131 30H126.357L125.482 25.6132H119.819L118.918 30H114.276L119.231 5.18954H126.07ZM122.635 11.3701L120.695 21.2515H124.606L122.635 11.3701Z" fill="#DDE5F5"/>
<path fill-rule="evenodd" clip-rule="evenodd" d="M29.7245 5.64485L26.645 16.9346H18.2266L8.26843 0L29.7245 5.64485Z" fill="#DDE5F5"/>
<path fill-rule="evenodd" clip-rule="evenodd" d="M20.2927 33.9999L11.8743 25.7338L16.0835 18.5771H35.9998L20.2927 33.9999Z" fill="#DDE5F5"/>
<path fill-rule="evenodd" clip-rule="evenodd" d="M0 11.8002L11.4979 8.77649L15.7071 15.9332L5.74893 32.8677L0 11.8002Z" fill="#DDE5F5"/>
</svg>
