<svg width="737" height="146" viewBox="0 0 737 146" fill="none" xmlns="http://www.w3.org/2000/svg">
<path d="M139.979 129.831C153.225 125.115 163.304 116.477 170.214 103.915C177.125 91.3531 180.869 74.8678 181.445 54.4592C174.534 52.4795 167.623 49.672 160.712 46.0366C153.801 42.4012 146.89 37.9379 139.979 32.6468V129.831Z" fill="#0064FA"/>
<path fill-rule="evenodd" clip-rule="evenodd" d="M49.9732 37.9716C38.4961 36.8587 28.8721 38.3862 21.1012 42.5542C12.1553 47.3525 5.84918 55.4899 2.18293 66.9665C-1.4881 78.4581 -0.528959 89.7132 5.06035 100.732C10.6692 111.469 20.6134 118.879 34.8928 122.964L34.9039 122.967L34.9137 122.97C35.2966 123.079 35.6928 123.135 36.091 123.136L36.1002 123.136H104.829C109.482 128.08 114.488 132.368 119.847 135.998C125.73 139.983 132.03 143.171 138.747 145.562C139.212 145.727 139.701 145.812 140.195 145.812C140.774 145.812 141.347 145.696 141.881 145.47C142.075 145.421 142.266 145.36 142.452 145.285L142.453 145.285L142.46 145.282C162.47 137.246 176.966 124.321 185.949 106.508C194.803 88.9484 198.337 68.4686 196.55 45.0681L196.549 45.0604L196.549 45.0595C196.398 43.0824 194.92 41.4621 192.965 41.1303L192.958 41.1291C183.719 39.5599 174.916 36.3506 166.549 31.5014C158.136 26.6252 150.431 20.2234 143.434 12.2961L143.433 12.2955C142.613 11.3665 141.434 10.8344 140.195 10.8344C140.123 10.8344 140.051 10.8362 139.979 10.8398C139.907 10.8362 139.835 10.8344 139.763 10.8344C138.524 10.8344 137.345 11.3665 136.525 12.2955L136.524 12.2961C129.527 20.2234 121.822 26.6252 113.409 31.5014C105.022 36.3626 96.1962 39.6478 86.932 41.357C84.8833 41.735 83.3964 43.5214 83.3964 45.6046C83.3964 45.6152 83.3964 45.6257 83.3965 45.6363C82.4847 56.5096 83.0132 67.2024 84.9819 77.7145C86.9592 88.2724 89.8115 97.4121 93.5389 105.134L93.544 105.144L93.5446 105.145C94.2654 106.638 95.7766 107.586 97.4341 107.586C99.8195 107.586 101.753 105.653 101.753 103.267C101.753 102.617 101.606 101.975 101.324 101.389L101.319 101.378C97.9243 94.347 95.3091 85.929 93.4729 76.1244C91.8177 67.2866 91.2611 58.3048 91.8028 49.1787C100.845 47.1583 109.491 43.7572 117.741 38.9753C125.761 34.3269 133.174 28.4371 139.979 21.3059C146.784 28.4371 154.197 34.3269 162.217 38.9753C170.466 43.7565 179.111 47.1001 188.151 49.0064C189.262 69.4347 185.957 87.3053 178.235 102.618C170.371 118.214 157.684 129.636 140.176 136.884C134.698 134.808 129.537 132.128 124.692 128.846C119.401 125.262 114.478 120.953 109.924 115.919L109.923 115.919C109.105 115.014 107.941 114.497 106.721 114.497C106.648 114.497 106.576 114.499 106.505 114.503C106.433 114.499 106.361 114.497 106.289 114.497H36.7152C25.1114 111.067 17.112 105.145 12.7171 96.7319C8.2282 87.8818 7.45976 78.8362 10.4118 69.5953C13.3687 60.3394 18.2928 53.8632 25.1843 50.1669C32.2595 46.372 41.5857 45.339 53.1629 47.0677L53.1714 47.069C53.3827 47.1006 53.5961 47.1164 53.8097 47.1164C53.8461 47.1164 53.8825 47.116 53.9189 47.115C53.9543 47.1159 53.9898 47.1163 54.0252 47.1163C56.3778 47.1163 58.2976 45.2337 58.3437 42.8816L58.3439 42.8696C58.6547 27.1742 65.4507 16.6816 78.7317 11.3916C92.1753 6.03698 105.176 8.73723 117.732 19.4924C118.515 20.1628 119.512 20.5312 120.542 20.5312C122.928 20.5312 124.862 18.5974 124.862 16.2119C124.862 14.9505 124.31 13.7521 123.352 12.9315C108.151 -0.0880321 92.2124 -3.27643 75.5351 3.36626C60.0997 9.51432 51.579 21.0494 49.9732 37.9716Z" fill="#0064FA"/>
<path opacity="0.45" fill-rule="evenodd" clip-rule="evenodd" d="M48.2783 112.57C31.877 110.743 19.4711 96.8777 19.4711 80.3749C19.4711 65.349 29.8036 52.2955 44.4281 48.8456C27.0166 49.0173 12.9922 63.2761 12.9922 80.8068C12.9922 98.4593 27.2057 112.77 44.7389 112.77C45.9215 112.77 47.1031 112.703 48.2783 112.57Z" fill="#0064FA"/>
<path d="M282.2 114.9H266.9L265.2 107.4C270.2 107.8 275 108 279.5 108C283.2 108 285.1 106.1 285.1 102.4V25.8H292.5V104.3C292.5 111.3 289 114.9 282.2 114.9ZM258.3 49L265.5 51.8C260.7 71.8 254.4 87 246.6 97.4L240.4 91.9C248.4 81.3 254.3 67 258.3 49ZM315.1 46.6C323 64.5 329.1 80.1 333.3 93.4L326.9 97.9C322.4 83.7 316.3 68 308.6 50.7L315.1 46.6ZM424.3 28.3V105H432.7V111.9H376.6V105H386V28.3H424.3ZM392.9 105H417.1V86.1H392.9V105ZM392.9 79.3H417.1V60.5H392.9V79.3ZM392.9 53.7H417.1V35.1H392.9V53.7ZM343.1 51.3H358.9V36.5C354.3 37.2 349.7 37.8 344.9 38.3L343.5 31.8C356.1 30.6 367.2 28.4 376.9 25.2L379.4 31.9C375.2 33.1 370.7 34.2 366.1 35.2V51.3H380V58.2H366.1V63.8C370.9 68.2 375.8 73.1 380.8 78.6L376.9 84.6C372.7 78.9 369.1 74.3 366.1 70.9V116.1H358.9V69.7C355.1 79.5 349.9 88.4 343.4 96.3L340.4 88.9C348.7 79.8 354.6 69.6 358.2 58.2H343.1V51.3ZM451.9 30.1H523.1V37.1H451.9V30.1ZM442.3 58H532V65.2H484C474.8 84.1 466.7 97.2 459.9 104.6C477.9 103.6 495.8 101.9 513.7 99.5C510.1 93.1 506.1 86.5 501.7 79.7L507.5 76.1C516.7 89.9 523.8 102 528.8 112.2L522.4 116.7C520.8 113.2 519.1 109.7 517.2 106.1C496.9 108.7 474.8 110.7 450.8 112.3L448.9 105C449.7 104.8 450.2 104.5 450.6 104.3C457 99.5 465.5 86.5 476 65.2H442.3V58ZM570.7 47.2C576.5 54.4 581.9 61.3 586.8 67.9C590.8 60.4 594 52.3 596.4 43.7L603.5 44.9C600.5 55.7 596.5 65.5 591.5 74.3C597.6 82.9 602.8 90.9 607.1 98.2L600.6 102.6C596.6 95.7 592.2 88.5 587.2 81.1C581 90.1 573.7 97.8 565.1 104.3L560.3 98.2C569.2 91.4 576.7 83.6 582.7 74.6C577.3 66.9 571.3 59 564.8 50.8L570.7 47.2ZM552.9 28.3H617.6V68.3C617.6 84.7 618.1 95.2 619.3 99.8C620.4 104.3 621.7 106.6 623.3 106.6C624.6 106.6 625.7 102 626.6 92.9L633 96C631.8 103.5 630.5 108.6 629.1 111.4C627.6 113.8 625.9 115 624.1 115C619.3 115 615.9 111.8 613.7 105.6C611.3 99.5 610.2 87.1 610.2 68.3V35.3H560.1V67.1C559.9 86.5 555.8 102.8 547.9 116L541.9 111.1C548.9 99.4 552.6 84.7 552.9 67.1V28.3ZM698.9 83.9H675.6V77.2H729V83.9H706.1V105.8H732.7V112.8H671.6V105.8H698.9V83.9ZM653.3 115.1H644.5L643 108.1C645.7 108.3 648.3 108.5 650.8 108.5C653.4 108.5 654.7 107.2 654.7 104.6V80C650.7 81.5 646.7 82.9 642.7 84.2L640.9 77C645.6 75.8 650.2 74.4 654.7 72.8V50.4H642.5V43.5H654.7V24.4H662.1V43.5H670.4V50.4H662.1V69.8C665.1 68.4 668 67 670.8 65.5V72.8C667.9 74.2 665 75.6 662.1 76.9V106.4C662.1 112.2 659.1 115.1 653.3 115.1ZM701.6 23.2C703.3 26.8 705 30.8 706.6 35.3H730.1V54.2H723.4V41.8H681.4V54.2H674.6V35.3H699.4C697.8 31.3 696.1 27.6 694.3 24.4L701.6 23.2ZM692.3 48L698.6 50.5C694 60.4 688 68 680.5 73.2L675.3 68.7C682.8 63.5 688.5 56.6 692.3 48ZM711.6 47.8C717.8 54.2 723.3 61.4 728.1 69.2L721.8 72.4C716.9 64.2 711.5 56.8 705.5 50.4L711.6 47.8Z" fill="#1E293B"/>
</svg>
